<svg width="351" height="44" viewBox="0 0 351 44" fill="none" xmlns="http://www.w3.org/2000/svg">
<g filter="url(#filter0_d_9_2)">
<path d="M6.256 35.24V29L33.856 29.048C35.264 29.048 36.336 28.728 37.072 28.088C37.84 27.416 38.224 26.344 38.224 24.872C38.224 23.4 37.84 22.344 37.072 21.704C36.336 21.032 35.264 20.696 33.856 20.696H16.672C13.12 20.696 10.352 19.848 8.368 18.152C6.416 16.424 5.44 13.896 5.44 10.568C5.44 7.24 6.416 4.728 8.368 3.032C10.352 1.304 13.12 0.439999 16.672 0.439999H43.648V6.68L17.488 6.632C16.112 6.632 15.04 6.952 14.272 7.592C13.504 8.2 13.12 9.192 13.12 10.568C13.12 11.944 13.504 12.952 14.272 13.592C15.04 14.2 16.112 14.504 17.488 14.504H34.672C38.224 14.504 40.976 15.384 42.928 17.144C44.912 18.872 45.904 21.448 45.904 24.872C45.904 28.264 44.912 30.84 42.928 32.6C40.976 34.36 38.224 35.24 34.672 35.24H6.256ZM62.8634 35C60.0794 35 58.0314 34.312 56.7194 32.936C55.4074 31.528 54.7514 29.688 54.7514 27.416V15.8H47.5994V10.28H54.7514V2.696H61.7114V10.28H71.9834V15.8H61.7114V26.552C61.7114 28.504 62.6714 29.48 64.5914 29.48H73.3274V35H62.8634ZM83.4816 35C80.8896 35 78.9056 34.344 77.5296 33.032C76.1536 31.72 75.4656 29.848 75.4656 27.416C75.4656 25.016 76.1536 23.16 77.5296 21.848C78.9056 20.536 80.8896 19.88 83.4816 19.88H101.914V18.728C101.914 16.776 100.954 15.8 99.0336 15.8H78.6816V10.28H100.858C103.77 10.28 105.834 10.952 107.05 12.296C108.266 13.608 108.874 15.464 108.874 17.864V35H83.4816ZM84.7296 29.48H101.914V25.4H84.7296C84.1216 25.4 83.6416 25.592 83.2896 25.976C82.9696 26.328 82.8096 26.808 82.8096 27.416C82.8096 28.024 82.9696 28.52 83.2896 28.904C83.6416 29.288 84.1216 29.48 84.7296 29.48ZM126.843 35.24C122.555 35.24 119.211 34.184 116.811 32.072C114.411 29.928 113.211 26.792 113.211 22.664C113.211 18.504 114.411 15.368 116.811 13.256C119.211 11.112 122.555 10.04 126.843 10.04H142.923V15.56H126.843C124.763 15.56 123.163 16.136 122.043 17.288C120.955 18.44 120.411 20.232 120.411 22.664C120.411 25.064 120.955 26.84 122.043 27.992C123.163 29.144 124.763 29.72 126.843 29.72H143.403V35.24H126.843ZM146.984 35V0.679998H153.944V10.28H170.552C173.368 10.28 175.512 10.952 176.984 12.296C178.488 13.608 179.24 15.496 179.24 17.96C179.24 21.992 177.32 24.392 173.48 25.16L179.336 35H171.512L165.848 25.448H153.944V35H146.984ZM170.216 15.752H153.944V19.976H170.216C170.856 19.976 171.352 19.784 171.704 19.4C172.088 19.016 172.28 18.488 172.28 17.816C172.28 16.44 171.592 15.752 170.216 15.752ZM183.256 35.24V29L210.856 29.048C212.264 29.048 213.336 28.728 214.072 28.088C214.84 27.416 215.224 26.344 215.224 24.872C215.224 23.4 214.84 22.344 214.072 21.704C213.336 21.032 212.264 20.696 210.856 20.696H193.672C190.12 20.696 187.352 19.848 185.368 18.152C183.416 16.424 182.44 13.896 182.44 10.568C182.44 7.24 183.416 4.728 185.368 3.032C187.352 1.304 190.12 0.439999 193.672 0.439999H220.648V6.68L194.488 6.632C193.112 6.632 192.04 6.952 191.272 7.592C190.504 8.2 190.12 9.192 190.12 10.568C190.12 11.944 190.504 12.952 191.272 13.592C192.04 14.2 193.112 14.504 194.488 14.504H211.672C215.224 14.504 217.976 15.384 219.928 17.144C221.912 18.872 222.904 21.448 222.904 24.872C222.904 28.264 221.912 30.84 219.928 32.6C217.976 34.36 215.224 35.24 211.672 35.24H183.256ZM239.863 35C237.079 35 235.031 34.312 233.719 32.936C232.407 31.528 231.751 29.688 231.751 27.416V15.8H224.599V10.28H231.751V2.696H238.711V10.28H248.983V15.8H238.711V26.552C238.711 28.504 239.671 29.48 241.591 29.48H250.327V35H239.863ZM260.482 35C257.89 35 255.906 34.344 254.53 33.032C253.154 31.72 252.466 29.848 252.466 27.416C252.466 25.016 253.154 23.16 254.53 21.848C255.906 20.536 257.89 19.88 260.482 19.88H278.914V18.728C278.914 16.776 277.954 15.8 276.034 15.8H255.682V10.28H277.858C280.77 10.28 282.834 10.952 284.05 12.296C285.266 13.608 285.874 15.464 285.874 17.864V35H260.482ZM261.73 29.48H278.914V25.4H261.73C261.122 25.4 260.642 25.592 260.29 25.976C259.97 26.328 259.81 26.808 259.81 27.416C259.81 28.024 259.97 28.52 260.29 28.904C260.642 29.288 261.122 29.48 261.73 29.48ZM291.171 35V10.28H310.083C312.867 10.28 314.915 10.984 316.227 12.392C317.539 13.768 318.195 15.592 318.195 17.864V23H311.139V18.728C311.139 16.808 310.179 15.848 308.259 15.848H298.227V35H291.171ZM334.879 35C332.095 35 330.047 34.312 328.735 32.936C327.423 31.528 326.767 29.688 326.767 27.416V15.8H319.615V10.28H326.767V2.696H333.727V10.28H343.999V15.8H333.727V26.552C333.727 28.504 334.687 29.48 336.607 29.48H345.343V35H334.879Z" fill="url(#paint0_linear_9_2)" fill-opacity="0.8" style="mix-blend-mode:hard-light" shape-rendering="crispEdges"/>
<path d="M4 20.168H346.303V22.568H4V20.168Z" fill="url(#paint1_linear_9_2)" fill-opacity="0.8" style="mix-blend-mode:hard-light" shape-rendering="crispEdges"/>
<path d="M6.256 35.24H5.256V36.24H6.256V35.24ZM6.256 29L6.25774 28L5.256 27.9983V29H6.256ZM33.856 29.048L33.8543 30.048H33.856V29.048ZM37.072 28.088L37.7282 28.8426L37.7305 28.8406L37.072 28.088ZM37.072 21.704L36.3977 22.4425L36.4144 22.4577L36.4318 22.4722L37.072 21.704ZM8.368 18.152L7.70516 18.9008L7.71164 18.9065L7.71822 18.9121L8.368 18.152ZM8.368 3.032L9.02387 3.78687L9.02478 3.78608L8.368 3.032ZM43.648 0.439999H44.648V-0.560001H43.648V0.439999ZM43.648 6.68L43.6462 7.68L44.648 7.68183V6.68H43.648ZM17.488 6.632L17.4898 5.632H17.488V6.632ZM14.272 7.592L14.8927 8.37604L14.9025 8.36825L14.9122 8.36022L14.272 7.592ZM14.272 13.592L13.6318 14.3602L13.6415 14.3683L13.6513 14.376L14.272 13.592ZM42.928 17.144L42.2584 17.8867L42.2647 17.8924L42.2712 17.8981L42.928 17.144ZM42.928 32.6L42.2644 31.8519L42.2584 31.8573L42.928 32.6ZM7.256 35.24V29H5.256V35.24H7.256ZM6.25426 30L33.8543 30.048L33.8577 28.048L6.25774 28L6.25426 30ZM33.856 30.048C35.4 30.048 36.744 29.6984 37.7282 28.8426L36.4158 27.3334C35.928 27.7576 35.128 28.048 33.856 28.048V30.048ZM37.7305 28.8406C38.7976 27.9068 39.224 26.5016 39.224 24.872H37.224C37.224 26.1864 36.8824 26.9252 36.4135 27.3354L37.7305 28.8406ZM39.224 24.872C39.224 23.247 38.7994 21.8418 37.7122 20.9358L36.4318 22.4722C36.8806 22.8462 37.224 23.553 37.224 24.872H39.224ZM37.7463 20.9655C36.7621 20.0669 35.4107 19.696 33.856 19.696V21.696C35.1173 21.696 35.9099 21.9971 36.3977 22.4425L37.7463 20.9655ZM33.856 19.696H16.672V21.696H33.856V19.696ZM16.672 19.696C13.2721 19.696 10.7645 18.885 9.01778 17.3919L7.71822 18.9121C9.93954 20.811 12.9679 21.696 16.672 21.696V19.696ZM9.03084 17.4032C7.34942 15.9148 6.44 13.6944 6.44 10.568H4.44C4.44 14.0976 5.48258 16.9332 7.70516 18.9008L9.03084 17.4032ZM6.44 10.568C6.44 7.44064 7.34969 5.24149 9.02387 3.78687L7.71213 2.27713C5.48231 4.21451 4.44 7.03936 4.44 10.568H6.44ZM9.02478 3.78608C10.7714 2.26485 13.2763 1.44 16.672 1.44V-0.560001C12.9637 -0.560001 9.93262 0.343151 7.71122 2.27792L9.02478 3.78608ZM16.672 1.44H43.648V-0.560001H16.672V1.44ZM42.648 0.439999V6.68H44.648V0.439999H42.648ZM43.6498 5.68L17.4898 5.632L17.4862 7.632L43.6462 7.68L43.6498 5.68ZM17.488 5.632C15.9657 5.632 14.637 5.98615 13.6318 6.82378L14.9122 8.36022C15.443 7.91784 16.2583 7.632 17.488 7.632V5.632ZM13.6513 6.80795C12.5574 7.67396 12.12 9.01673 12.12 10.568H14.12C14.12 9.36727 14.4506 8.72603 14.8927 8.37604L13.6513 6.80795ZM12.12 10.568C12.12 12.1232 12.5588 13.466 13.6318 14.3602L14.9122 12.8238C14.4492 12.438 14.12 11.7648 14.12 10.568H12.12ZM13.6513 14.376C14.6552 15.1708 15.9761 15.504 17.488 15.504V13.504C16.2479 13.504 15.4248 13.2292 14.8927 12.808L13.6513 14.376ZM17.488 15.504H34.672V13.504H17.488V15.504ZM34.672 15.504C38.0647 15.504 40.5464 16.3431 42.2584 17.8867L43.5976 16.4013C41.4056 14.4249 38.3833 13.504 34.672 13.504V15.504ZM42.2712 17.8981C43.9757 19.3827 44.904 21.6443 44.904 24.872H46.904C46.904 21.2517 45.8483 18.3613 43.5848 16.3899L42.2712 17.8981ZM44.904 24.872C44.904 28.0633 43.978 30.3318 42.2644 31.8519L43.5916 33.3481C45.846 31.3482 46.904 28.4647 46.904 24.872H44.904ZM42.2584 31.8573C40.5464 33.4009 38.0647 34.24 34.672 34.24V36.24C38.3833 36.24 41.4056 35.3191 43.5976 33.3427L42.2584 31.8573ZM34.672 34.24H6.256V36.24H34.672V34.24ZM56.7194 32.936L55.9877 33.6178L55.9956 33.6261L56.7194 32.936ZM54.7514 15.8H55.7514V14.8H54.7514V15.8ZM47.5994 15.8H46.5994V16.8H47.5994V15.8ZM47.5994 10.28V9.28H46.5994V10.28H47.5994ZM54.7514 10.28V11.28H55.7514V10.28H54.7514ZM54.7514 2.696V1.696H53.7514V2.696H54.7514ZM61.7114 2.696H62.7114V1.696H61.7114V2.696ZM61.7114 10.28H60.7114V11.28H61.7114V10.28ZM71.9834 10.28H72.9834V9.28H71.9834V10.28ZM71.9834 15.8V16.8H72.9834V15.8H71.9834ZM61.7114 15.8V14.8H60.7114V15.8H61.7114ZM73.3274 29.48H74.3274V28.48H73.3274V29.48ZM73.3274 35V36H74.3274V35H73.3274ZM62.8634 34C60.2252 34 58.4935 33.3475 57.4431 32.2459L55.9956 33.6261C57.5693 35.2765 59.9335 36 62.8634 36V34ZM57.451 32.2543C56.342 31.0641 55.7514 29.4836 55.7514 27.416H53.7514C53.7514 29.8924 54.4728 31.9919 55.9878 33.6177L57.451 32.2543ZM55.7514 27.416V15.8H53.7514V27.416H55.7514ZM54.7514 14.8H47.5994V16.8H54.7514V14.8ZM48.5994 15.8V10.28H46.5994V15.8H48.5994ZM47.5994 11.28H54.7514V9.28H47.5994V11.28ZM55.7514 10.28V2.696H53.7514V10.28H55.7514ZM54.7514 3.696H61.7114V1.696H54.7514V3.696ZM60.7114 2.696V10.28H62.7114V2.696H60.7114ZM61.7114 11.28H71.9834V9.28H61.7114V11.28ZM70.9834 10.28V15.8H72.9834V10.28H70.9834ZM71.9834 14.8H61.7114V16.8H71.9834V14.8ZM60.7114 15.8V26.552H62.7114V15.8H60.7114ZM60.7114 26.552C60.7114 27.678 60.9884 28.707 61.7184 29.4492C62.4515 30.1945 63.473 30.48 64.5914 30.48V28.48C63.7897 28.48 63.3713 28.2775 63.1443 28.0468C62.9143 27.813 62.7114 27.378 62.7114 26.552H60.7114ZM64.5914 30.48H73.3274V28.48H64.5914V30.48ZM72.3274 29.48V35H74.3274V29.48H72.3274ZM73.3274 34H62.8634V36H73.3274V34ZM77.5296 33.032L76.8395 33.7557L77.5296 33.032ZM77.5296 21.848L76.8395 21.1243L76.8395 21.1243L77.5296 21.848ZM101.914 19.88V20.88H102.914V19.88H101.914ZM78.6816 15.8H77.6816V16.8H78.6816V15.8ZM78.6816 10.28V9.28H77.6816V10.28H78.6816ZM107.05 12.296L106.308 12.967L106.316 12.9758L107.05 12.296ZM108.874 35V36H109.874V35H108.874ZM101.914 29.48V30.48H102.914V29.48H101.914ZM101.914 25.4H102.914V24.4H101.914V25.4ZM83.2896 25.976L82.5525 25.3003L82.5497 25.3033L83.2896 25.976ZM83.2896 28.904L82.5214 29.5442L82.5365 29.5623L82.5525 29.5797L83.2896 28.904ZM83.4816 34C81.0516 34 79.3508 33.3867 78.2197 32.3083L76.8395 33.7557C78.4605 35.3013 80.7276 36 83.4816 36V34ZM78.2197 32.3083C77.0932 31.2342 76.4656 29.6551 76.4656 27.416H74.4656C74.4656 30.0409 75.214 32.2058 76.8395 33.7557L78.2197 32.3083ZM76.4656 27.416C76.4656 25.2134 77.0907 23.6483 78.2197 22.5717L76.8395 21.1243C75.2166 22.6717 74.4656 24.8186 74.4656 27.416H76.4656ZM78.2197 22.5717C79.3508 21.4933 81.0516 20.88 83.4816 20.88V18.88C80.7276 18.88 78.4605 19.5787 76.8395 21.1243L78.2197 22.5717ZM83.4816 20.88H101.914V18.88H83.4816V20.88ZM102.914 19.88V18.728H100.914V19.88H102.914ZM102.914 18.728C102.914 17.602 102.637 16.573 101.907 15.8308C101.174 15.0855 100.152 14.8 99.0336 14.8V16.8C99.8353 16.8 100.254 17.0025 100.481 17.2332C100.711 17.467 100.914 17.902 100.914 18.728H102.914ZM99.0336 14.8H78.6816V16.8H99.0336V14.8ZM79.6816 15.8V10.28H77.6816V15.8H79.6816ZM78.6816 11.28H100.858V9.28H78.6816V11.28ZM100.858 11.28C103.654 11.28 105.371 11.9307 106.308 12.9669L107.791 11.6251C106.297 9.97331 103.885 9.28 100.858 9.28V11.28ZM106.316 12.9758C107.309 14.0472 107.874 15.6283 107.874 17.864H109.874C109.874 15.2997 109.222 13.1688 107.783 11.6162L106.316 12.9758ZM107.874 17.864V35H109.874V17.864H107.874ZM108.874 34H83.4816V36H108.874V34ZM84.7296 30.48H101.914V28.48H84.7296V30.48ZM102.914 29.48V25.4H100.914V29.48H102.914ZM101.914 24.4H84.7296V26.4H101.914V24.4ZM84.7296 24.4C83.8926 24.4 83.126 24.6746 82.5525 25.3003L84.0268 26.6517C84.1573 26.5094 84.3506 26.4 84.7296 26.4V24.4ZM82.5497 25.3033C82.0198 25.8862 81.8096 26.6307 81.8096 27.416H83.8096C83.8096 26.9853 83.9195 26.7698 84.0296 26.6487L82.5497 25.3033ZM81.8096 27.416C81.8096 28.2054 82.0211 28.9439 82.5214 29.5442L84.0578 28.2638C83.9181 28.0961 83.8096 27.8426 83.8096 27.416H81.8096ZM82.5525 29.5797C83.126 30.2054 83.8926 30.48 84.7296 30.48V28.48C84.3506 28.48 84.1573 28.3706 84.0268 28.2283L82.5525 29.5797ZM116.811 32.072L116.145 32.8178L116.151 32.8227L116.811 32.072ZM116.811 13.256L117.472 14.0067L117.477 14.0018L116.811 13.256ZM142.923 10.04H143.923V9.04H142.923V10.04ZM142.923 15.56V16.56H143.923V15.56H142.923ZM122.043 17.288L121.326 16.5909L121.321 16.5961L121.316 16.6014L122.043 17.288ZM122.043 27.992L121.316 28.6786L121.321 28.6839L121.326 28.6891L122.043 27.992ZM143.403 29.72H144.403V28.72H143.403V29.72ZM143.403 35.24V36.24H144.403V35.24H143.403ZM126.843 34.24C122.714 34.24 119.635 33.2247 117.472 31.3213L116.151 32.8227C118.788 35.1433 122.396 36.24 126.843 36.24V34.24ZM117.477 31.3262C115.346 29.4225 114.211 26.5931 114.211 22.664H112.211C112.211 26.9909 113.476 30.4335 116.145 32.8178L117.477 31.3262ZM114.211 22.664C114.211 18.6993 115.348 15.8755 117.472 14.0067L116.151 12.5053C113.474 14.8605 112.211 18.3087 112.211 22.664H114.211ZM117.477 14.0018C119.64 12.0695 122.718 11.04 126.843 11.04V9.04C122.393 9.04 118.782 10.1545 116.145 12.5102L117.477 14.0018ZM126.843 11.04H142.923V9.04H126.843V11.04ZM141.923 10.04V15.56H143.923V10.04H141.923ZM142.923 14.56H126.843V16.56H142.923V14.56ZM126.843 14.56C124.577 14.56 122.686 15.1927 121.326 16.5909L122.76 17.9851C123.641 17.0793 124.95 16.56 126.843 16.56V14.56ZM121.316 16.6014C119.979 18.017 119.411 20.1092 119.411 22.664H121.411C121.411 20.3548 121.931 18.863 122.77 17.9746L121.316 16.6014ZM119.411 22.664C119.411 25.1911 119.981 27.265 121.316 28.6786L122.77 27.3054C121.929 26.415 121.411 24.9369 121.411 22.664H119.411ZM121.326 28.6891C122.686 30.0873 124.577 30.72 126.843 30.72V28.72C124.95 28.72 123.641 28.2007 122.76 27.2949L121.326 28.6891ZM126.843 30.72H143.403V28.72H126.843V30.72ZM142.403 29.72V35.24H144.403V29.72H142.403ZM143.403 34.24H126.843V36.24H143.403V34.24ZM146.984 35H145.984V36H146.984V35ZM146.984 0.679998V-0.320002H145.984V0.679998H146.984ZM153.944 0.679998H154.944V-0.320002H153.944V0.679998ZM153.944 10.28H152.944V11.28H153.944V10.28ZM176.984 12.296L176.309 13.0345L176.318 13.0421L176.326 13.0496L176.984 12.296ZM173.48 25.16L173.284 24.1794L171.897 24.4566L172.62 25.6714L173.48 25.16ZM179.336 35V36H181.095L180.195 34.4886L179.336 35ZM171.512 35L170.652 35.51L170.942 36H171.512V35ZM165.848 25.448L166.708 24.938L166.417 24.448H165.848V25.448ZM153.944 25.448V24.448H152.944V25.448H153.944ZM153.944 35V36H154.944V35H153.944ZM153.944 15.752V14.752H152.944V15.752H153.944ZM153.944 19.976H152.944V20.976H153.944V19.976ZM171.704 19.4L170.997 18.6929L170.981 18.7083L170.967 18.7243L171.704 19.4ZM147.984 35V0.679998H145.984V35H147.984ZM146.984 1.68H153.944V-0.320002H146.984V1.68ZM152.944 0.679998V10.28H154.944V0.679998H152.944ZM153.944 11.28H170.552V9.28H153.944V11.28ZM170.552 11.28C173.221 11.28 175.086 11.9171 176.309 13.0345L177.658 11.5575C175.938 9.98689 173.514 9.28 170.552 9.28V11.28ZM176.326 13.0496C177.563 14.1282 178.24 15.7114 178.24 17.96H180.24C180.24 15.2806 179.413 13.0878 177.641 11.5424L176.326 13.0496ZM178.24 17.96C178.24 19.8202 177.798 21.1853 177.019 22.1593C176.242 23.1299 175.038 23.8286 173.284 24.1794L173.676 26.1406C175.762 25.7234 177.437 24.8381 178.581 23.4087C179.721 21.9827 180.24 20.1318 180.24 17.96H178.24ZM172.62 25.6714L178.476 35.5114L180.195 34.4886L174.339 24.6486L172.62 25.6714ZM179.336 34H171.512V36H179.336V34ZM172.372 34.49L166.708 24.938L164.988 25.958L170.652 35.51L172.372 34.49ZM165.848 24.448H153.944V26.448H165.848V24.448ZM152.944 25.448V35H154.944V25.448H152.944ZM153.944 34H146.984V36H153.944V34ZM170.216 14.752H153.944V16.752H170.216V14.752ZM152.944 15.752V19.976H154.944V15.752H152.944ZM153.944 20.976H170.216V18.976H153.944V20.976ZM170.216 20.976C171.067 20.976 171.857 20.7123 172.441 20.0757L170.967 18.7243C170.846 18.8557 170.644 18.976 170.216 18.976V20.976ZM172.411 20.1071C173.025 19.4931 173.28 18.6865 173.28 17.816H171.28C171.28 18.2895 171.151 18.5389 170.997 18.6929L172.411 20.1071ZM173.28 17.816C173.28 16.9739 173.069 16.1586 172.471 15.5609C171.873 14.9632 171.058 14.752 170.216 14.752V16.752C170.75 16.752 170.966 16.8848 171.057 16.9751C171.147 17.0654 171.28 17.2821 171.28 17.816H173.28ZM183.256 35.24H182.256V36.24H183.256V35.24ZM183.256 29L183.258 28L182.256 27.9983V29H183.256ZM210.856 29.048L210.854 30.048H210.856V29.048ZM214.072 28.088L214.728 28.8426L214.731 28.8406L214.072 28.088ZM214.072 21.704L213.398 22.4425L213.414 22.4577L213.432 22.4722L214.072 21.704ZM185.368 18.152L184.705 18.9008L184.712 18.9065L184.718 18.9121L185.368 18.152ZM185.368 3.032L186.024 3.78687L186.025 3.78608L185.368 3.032ZM220.648 0.439999H221.648V-0.560001H220.648V0.439999ZM220.648 6.68L220.646 7.68L221.648 7.68183V6.68H220.648ZM194.488 6.632L194.49 5.632H194.488V6.632ZM191.272 7.592L191.893 8.37604L191.903 8.36825L191.912 8.36022L191.272 7.592ZM191.272 13.592L190.632 14.3602L190.641 14.3683L190.651 14.376L191.272 13.592ZM219.928 17.144L219.258 17.8867L219.265 17.8924L219.271 17.8981L219.928 17.144ZM219.928 32.6L219.264 31.8519L219.258 31.8573L219.928 32.6ZM184.256 35.24V29H182.256V35.24H184.256ZM183.254 30L210.854 30.048L210.858 28.048L183.258 28L183.254 30ZM210.856 30.048C212.4 30.048 213.744 29.6984 214.728 28.8426L213.416 27.3334C212.928 27.7576 212.128 28.048 210.856 28.048V30.048ZM214.731 28.8406C215.798 27.9068 216.224 26.5016 216.224 24.872H214.224C214.224 26.1864 213.882 26.9252 213.413 27.3354L214.731 28.8406ZM216.224 24.872C216.224 23.247 215.799 21.8418 214.712 20.9358L213.432 22.4722C213.881 22.8462 214.224 23.553 214.224 24.872H216.224ZM214.746 20.9655C213.762 20.0669 212.411 19.696 210.856 19.696V21.696C212.117 21.696 212.91 21.9971 213.398 22.4425L214.746 20.9655ZM210.856 19.696H193.672V21.696H210.856V19.696ZM193.672 19.696C190.272 19.696 187.764 18.885 186.018 17.3919L184.718 18.9121C186.94 20.811 189.968 21.696 193.672 21.696V19.696ZM186.031 17.4032C184.349 15.9148 183.44 13.6944 183.44 10.568H181.44C181.44 14.0976 182.483 16.9332 184.705 18.9008L186.031 17.4032ZM183.44 10.568C183.44 7.44064 184.35 5.24149 186.024 3.78687L184.712 2.27713C182.482 4.21451 181.44 7.03936 181.44 10.568H183.44ZM186.025 3.78608C187.771 2.26485 190.276 1.44 193.672 1.44V-0.560001C189.964 -0.560001 186.933 0.343151 184.711 2.27792L186.025 3.78608ZM193.672 1.44H220.648V-0.560001H193.672V1.44ZM219.648 0.439999V6.68H221.648V0.439999H219.648ZM220.65 5.68L194.49 5.632L194.486 7.632L220.646 7.68L220.65 5.68ZM194.488 5.632C192.966 5.632 191.637 5.98615 190.632 6.82378L191.912 8.36022C192.443 7.91784 193.258 7.632 194.488 7.632V5.632ZM190.651 6.80795C189.557 7.67396 189.12 9.01673 189.12 10.568H191.12C191.12 9.36727 191.451 8.72603 191.893 8.37604L190.651 6.80795ZM189.12 10.568C189.12 12.1232 189.559 13.466 190.632 14.3602L191.912 12.8238C191.449 12.438 191.12 11.7648 191.12 10.568H189.12ZM190.651 14.376C191.655 15.1708 192.976 15.504 194.488 15.504V13.504C193.248 13.504 192.425 13.2292 191.893 12.808L190.651 14.376ZM194.488 15.504H211.672V13.504H194.488V15.504ZM211.672 15.504C215.065 15.504 217.546 16.3431 219.258 17.8867L220.598 16.4013C218.406 14.4249 215.383 13.504 211.672 13.504V15.504ZM219.271 17.8981C220.976 19.3827 221.904 21.6443 221.904 24.872H223.904C223.904 21.2517 222.848 18.3613 220.585 16.3899L219.271 17.8981ZM221.904 24.872C221.904 28.0633 220.978 30.3318 219.264 31.8519L220.592 33.3481C222.846 31.3482 223.904 28.4647 223.904 24.872H221.904ZM219.258 31.8573C217.546 33.4009 215.065 34.24 211.672 34.24V36.24C215.383 36.24 218.406 35.3191 220.598 33.3427L219.258 31.8573ZM211.672 34.24H183.256V36.24H211.672V34.24ZM233.719 32.936L232.988 33.6178L232.996 33.6261L233.719 32.936ZM231.751 15.8H232.751V14.8H231.751V15.8ZM224.599 15.8H223.599V16.8H224.599V15.8ZM224.599 10.28V9.28H223.599V10.28H224.599ZM231.751 10.28V11.28H232.751V10.28H231.751ZM231.751 2.696V1.696H230.751V2.696H231.751ZM238.711 2.696H239.711V1.696H238.711V2.696ZM238.711 10.28H237.711V11.28H238.711V10.28ZM248.983 10.28H249.983V9.28H248.983V10.28ZM248.983 15.8V16.8H249.983V15.8H248.983ZM238.711 15.8V14.8H237.711V15.8H238.711ZM250.327 29.48H251.327V28.48H250.327V29.48ZM250.327 35V36H251.327V35H250.327ZM239.863 34C237.225 34 235.493 33.3475 234.443 32.2459L232.996 33.6261C234.569 35.2765 236.934 36 239.863 36V34ZM234.451 32.2543C233.342 31.0641 232.751 29.4836 232.751 27.416H230.751C230.751 29.8924 231.473 31.9919 232.988 33.6177L234.451 32.2543ZM232.751 27.416V15.8H230.751V27.416H232.751ZM231.751 14.8H224.599V16.8H231.751V14.8ZM225.599 15.8V10.28H223.599V15.8H225.599ZM224.599 11.28H231.751V9.28H224.599V11.28ZM232.751 10.28V2.696H230.751V10.28H232.751ZM231.751 3.696H238.711V1.696H231.751V3.696ZM237.711 2.696V10.28H239.711V2.696H237.711ZM238.711 11.28H248.983V9.28H238.711V11.28ZM247.983 10.28V15.8H249.983V10.28H247.983ZM248.983 14.8H238.711V16.8H248.983V14.8ZM237.711 15.8V26.552H239.711V15.8H237.711ZM237.711 26.552C237.711 27.678 237.988 28.707 238.718 29.4492C239.451 30.1945 240.473 30.48 241.591 30.48V28.48C240.79 28.48 240.371 28.2775 240.144 28.0468C239.914 27.813 239.711 27.378 239.711 26.552H237.711ZM241.591 30.48H250.327V28.48H241.591V30.48ZM249.327 29.48V35H251.327V29.48H249.327ZM250.327 34H239.863V36H250.327V34ZM254.53 33.032L253.84 33.7557L254.53 33.032ZM254.53 21.848L253.84 21.1243L253.84 21.1243L254.53 21.848ZM278.914 19.88V20.88H279.914V19.88H278.914ZM255.682 15.8H254.682V16.8H255.682V15.8ZM255.682 10.28V9.28H254.682V10.28H255.682ZM284.05 12.296L283.308 12.967L283.316 12.9758L284.05 12.296ZM285.874 35V36H286.874V35H285.874ZM278.914 29.48V30.48H279.914V29.48H278.914ZM278.914 25.4H279.914V24.4H278.914V25.4ZM260.29 25.976L259.552 25.3003L259.55 25.3033L260.29 25.976ZM260.29 28.904L259.521 29.5442L259.537 29.5623L259.552 29.5797L260.29 28.904ZM260.482 34C258.052 34 256.351 33.3867 255.22 32.3083L253.84 33.7557C255.46 35.3013 257.728 36 260.482 36V34ZM255.22 32.3083C254.093 31.2342 253.466 29.6551 253.466 27.416H251.466C251.466 30.0409 252.214 32.2058 253.84 33.7557L255.22 32.3083ZM253.466 27.416C253.466 25.2134 254.091 23.6483 255.22 22.5717L253.84 21.1243C252.217 22.6717 251.466 24.8186 251.466 27.416H253.466ZM255.22 22.5717C256.351 21.4933 258.052 20.88 260.482 20.88V18.88C257.728 18.88 255.46 19.5787 253.84 21.1243L255.22 22.5717ZM260.482 20.88H278.914V18.88H260.482V20.88ZM279.914 19.88V18.728H277.914V19.88H279.914ZM279.914 18.728C279.914 17.602 279.637 16.573 278.907 15.8308C278.174 15.0855 277.152 14.8 276.034 14.8V16.8C276.835 16.8 277.254 17.0025 277.481 17.2332C277.711 17.467 277.914 17.902 277.914 18.728H279.914ZM276.034 14.8H255.682V16.8H276.034V14.8ZM256.682 15.8V10.28H254.682V15.8H256.682ZM255.682 11.28H277.858V9.28H255.682V11.28ZM277.858 11.28C280.654 11.28 282.371 11.9307 283.308 12.9669L284.791 11.6251C283.297 9.97331 280.885 9.28 277.858 9.28V11.28ZM283.316 12.9758C284.309 14.0472 284.874 15.6283 284.874 17.864H286.874C286.874 15.2997 286.222 13.1688 284.783 11.6162L283.316 12.9758ZM284.874 17.864V35H286.874V17.864H284.874ZM285.874 34H260.482V36H285.874V34ZM261.73 30.48H278.914V28.48H261.73V30.48ZM279.914 29.48V25.4H277.914V29.48H279.914ZM278.914 24.4H261.73V26.4H278.914V24.4ZM261.73 24.4C260.893 24.4 260.126 24.6746 259.552 25.3003L261.027 26.6517C261.157 26.5094 261.351 26.4 261.73 26.4V24.4ZM259.55 25.3033C259.02 25.8862 258.81 26.6307 258.81 27.416H260.81C260.81 26.9853 260.919 26.7698 261.03 26.6487L259.55 25.3033ZM258.81 27.416C258.81 28.2054 259.021 28.9439 259.521 29.5442L261.058 28.2638C260.918 28.0961 260.81 27.8426 260.81 27.416H258.81ZM259.552 29.5797C260.126 30.2054 260.893 30.48 261.73 30.48V28.48C261.351 28.48 261.157 28.3706 261.027 28.2283L259.552 29.5797ZM291.171 35H290.171V36H291.171V35ZM291.171 10.28V9.28H290.171V10.28H291.171ZM316.227 12.392L315.496 13.0738L315.504 13.0821L316.227 12.392ZM318.195 23V24H319.195V23H318.195ZM311.139 23H310.139V24H311.139V23ZM298.227 15.848V14.848H297.227V15.848H298.227ZM298.227 35V36H299.227V35H298.227ZM292.171 35V10.28H290.171V35H292.171ZM291.171 11.28H310.083V9.28H291.171V11.28ZM310.083 11.28C312.715 11.28 314.444 11.9453 315.496 13.0737L316.959 11.7103C315.386 10.0227 313.019 9.28 310.083 9.28V11.28ZM315.504 13.0821C316.605 14.2368 317.195 15.7957 317.195 17.864H319.195C319.195 15.3883 318.474 13.2992 316.951 11.7019L315.504 13.0821ZM317.195 17.864V23H319.195V17.864H317.195ZM318.195 22H311.139V24H318.195V22ZM312.139 23V18.728H310.139V23H312.139ZM312.139 18.728C312.139 17.6139 311.86 16.5946 311.126 15.8609C310.393 15.1272 309.373 14.848 308.259 14.848V16.848C309.065 16.848 309.486 17.0488 309.712 17.2751C309.938 17.5014 310.139 17.9221 310.139 18.728H312.139ZM308.259 14.848H298.227V16.848H308.259V14.848ZM297.227 15.848V35H299.227V15.848H297.227ZM298.227 34H291.171V36H298.227V34ZM328.735 32.936L328.003 33.6178L328.011 33.6261L328.735 32.936ZM326.767 15.8H327.767V14.8H326.767V15.8ZM319.615 15.8H318.615V16.8H319.615V15.8ZM319.615 10.28V9.28H318.615V10.28H319.615ZM326.767 10.28V11.28H327.767V10.28H326.767ZM326.767 2.696V1.696H325.767V2.696H326.767ZM333.727 2.696H334.727V1.696H333.727V2.696ZM333.727 10.28H332.727V11.28H333.727V10.28ZM343.999 10.28H344.999V9.28H343.999V10.28ZM343.999 15.8V16.8H344.999V15.8H343.999ZM333.727 15.8V14.8H332.727V15.8H333.727ZM345.343 29.48H346.343V28.48H345.343V29.48ZM345.343 35V36H346.343V35H345.343ZM334.879 34C332.241 34 330.509 33.3475 329.459 32.2459L328.011 33.6261C329.585 35.2765 331.949 36 334.879 36V34ZM329.467 32.2543C328.358 31.0641 327.767 29.4836 327.767 27.416H325.767C325.767 29.8924 326.488 31.9919 328.003 33.6177L329.467 32.2543ZM327.767 27.416V15.8H325.767V27.416H327.767ZM326.767 14.8H319.615V16.8H326.767V14.8ZM320.615 15.8V10.28H318.615V15.8H320.615ZM319.615 11.28H326.767V9.28H319.615V11.28ZM327.767 10.28V2.696H325.767V10.28H327.767ZM326.767 3.696H333.727V1.696H326.767V3.696ZM332.727 2.696V10.28H334.727V2.696H332.727ZM333.727 11.28H343.999V9.28H333.727V11.28ZM342.999 10.28V15.8H344.999V10.28H342.999ZM343.999 14.8H333.727V16.8H343.999V14.8ZM332.727 15.8V26.552H334.727V15.8H332.727ZM332.727 26.552C332.727 27.678 333.004 28.707 333.734 29.4492C334.467 30.1945 335.489 30.48 336.607 30.48V28.48C335.805 28.48 335.387 28.2775 335.16 28.0468C334.93 27.813 334.727 27.378 334.727 26.552H332.727ZM336.607 30.48H345.343V28.48H336.607V30.48ZM344.343 29.48V35H346.343V29.48H344.343ZM345.343 34H334.879V36H345.343V34Z" fill="white"/>
<path d="M4 20.168V19.168H3V20.168H4ZM346.303 20.168H347.303V19.168H346.303V20.168ZM346.303 22.568V23.568H347.303V22.568H346.303ZM4 22.568H3V23.568H4V22.568ZM4 21.168H346.303V19.168H4V21.168ZM345.303 20.168V22.568H347.303V20.168H345.303ZM346.303 21.568H4V23.568H346.303V21.568ZM5 22.568V20.168H3V22.568H5Z" fill="white"/>
</g>
<defs>
<filter id="filter0_d_9_2" x="0" y="0.439999" width="350.303" height="42.8" filterUnits="userSpaceOnUse" color-interpolation-filters="sRGB">
<feFlood flood-opacity="0" result="BackgroundImageFix"/>
<feColorMatrix in="SourceAlpha" type="matrix" values="0 0 0 0 0 0 0 0 0 0 0 0 0 0 0 0 0 0 127 0" result="hardAlpha"/>
<feOffset dy="4"/>
<feGaussianBlur stdDeviation="2"/>
<feComposite in2="hardAlpha" operator="out"/>
<feColorMatrix type="matrix" values="0 0 0 0 0 0 0 0 0 0 0 0 0 0 0 0 0 0 0.25 0"/>
<feBlend mode="normal" in2="BackgroundImageFix" result="effect1_dropShadow_9_2"/>
<feBlend mode="normal" in="SourceGraphic" in2="effect1_dropShadow_9_2" result="shape"/>
</filter>
<linearGradient id="paint0_linear_9_2" x1="-7.9022" y1="-2.75001" x2="277.751" y2="-2.75001" gradientUnits="userSpaceOnUse">
<stop offset="0.03125" stop-color="#1A1A1A"/>
<stop offset="1" stop-color="#EFEFEF"/>
</linearGradient>
<linearGradient id="paint1_linear_9_2" x1="-7.9022" y1="-2.75001" x2="277.751" y2="-2.75001" gradientUnits="userSpaceOnUse">
<stop offset="0.03125" stop-color="#1A1A1A"/>
<stop offset="1" stop-color="#EFEFEF"/>
</linearGradient>
</defs>
</svg>
